# xmcd
#
# Track frame offsets:
#	150
#	13659
#	25797
#	37249
#	48211
#	61193
#	74824
#	85541
#	100041
#	113534
#	128638
#	141932
#	153695
#	164914
#	176701
#	191950
#	204325
#	216913
#	230322
#	244619
#	257180
#	268601
#	282051
#	295346
#	308344
#
# Disc length: 4265 seconds
#
# Revision: 1
# Processed by: cddbd v1.5.1PL0 Copyright (c) Steve Scherf et al.
# Submitted via: audiograbber 1.82.02
#
DISCID=6c10a719
DTITLE=Various Artist - Dawn Of Doo-Wop, Digging The Roots
DYEAR=1900
DGENRE=Doo-Wop
TTITLE0=Basin Street Boys - I Sold My Heart To The Junk Man
TTITLE1=Basin Street Boys - Near To You
TTITLE2=Deep River Boys - That Chick's Too Young To Fry
TTITLE3=Four Rockets - Loch Lomond
TTITLE4=Four Vagabonds - Comin' In On A Wing And A Prayer
TTITLE5=Four Vagabonds - P. S. I Love You
TTITLE6=Red Caps (Steve Gibson and The) - Boogie Woogie On A Saturday Night
TTITLE7=Ink Spots - To Each His Own
TTITLE8=Ink Spots - When The Swallows Come Back To Capistrano
TTITLE9=Ink Spots - You're Breaking My Heart
TTITLE10=Musical Notes (Bill Johnson and His ) - Shorty's Got To Go
TTITLE11=Lewis Bronzeville Five - Natchez Mississippi Blues
TTITLE12=Mills Brothers - Across The Alley From The Alamo
TTITLE13=Mills Brothers - Paper Doll
TTITLE14=Mills Brothers - You Always Hurt The One You Love
TTITLE15=Ravens - Bye Bye Baby Blues
TTITLE16=Ravens - Together
TTITLE17=Ravens - Ol' Man River
TTITLE18=Ravens - White Christmas
TTITLE19=Red Caps - Just For You
TTITLE20=Syncopaters - River Stay Away From My Door
TTITLE21=Syncopaters - These Are The Things I Want To Share With You
TTITLE22=Toppers - I'm Living For You
TTITLE23=Toppers - In A Palace Of Stone
TTITLE24=Trumpeteers - Milky White Way
EXTD=
EXTT0=
EXTT1=
EXTT2=
EXTT3=
EXTT4=
EXTT5=
EXTT6=
EXTT7=
EXTT8=
EXTT9=
EXTT10=
EXTT11=
EXTT12=
EXTT13=
EXTT14=
EXTT15=
EXTT16=
EXTT17=
EXTT18=
EXTT19=
EXTT20=
EXTT21=
EXTT22=
EXTT23=
EXTT24=
PLAYORDER=
